<?xml version="1.0" standalone="no"?>
<!DOCTYPE svg PUBLIC "-//W3C//DTD SVG 20010904//EN"
 "http://www.w3.org/TR/2001/REC-SVG-20010904/DTD/svg10.dtd">
<svg version="1.0" xmlns="http://www.w3.org/2000/svg"
 width="1024.000000pt" height="1024.000000pt" viewBox="0 0 1024.000000 1024.000000"
 preserveAspectRatio="xMidYMid meet">
<metadata>
Created by potrace 1.11, written by Peter Selinger 2001-2013
</metadata>
<g transform="translate(0.000000,1024.000000) scale(0.100000,-0.100000)"
fill="#000000" stroke="none">
<path d="M4760 10229 c-572 -42 -1170 -189 -1682 -414 l-108 -47 0 -4648 0
-4648 108 -47 c1021 -449 2192 -546 3285 -271 208 52 477 136 477 149 0 5
-855 1165 -1900 2579 l-1901 2570 75 92 c41 50 871 1067 1845 2261 974 1193
1767 2172 1763 2176 -26 25 -498 144 -722 183 -398 69 -856 93 -1240 65z"/>
<path d="M7803 9392 c-28 -31 -737 -887 -1578 -1902 -841 -1015 -1548 -1868
-1573 -1897 l-44 -52 1713 -2288 c942 -1258 1720 -2296 1729 -2306 16 -17 23
-12 161 92 1880 1422 2545 3951 1607 6116 -348 803 -904 1514 -1597 2038 -110
84 -297 215 -358 250 -6 4 -31 -17 -60 -51z"/>
<path d="M1474 8718 c-465 -486 -803 -987 -1052 -1563 -602 -1390 -558 -2973
120 -4330 184 -368 446 -758 716 -1066 133 -152 321 -349 333 -349 5 0 9 1547
9 3710 0 2163 -4 3710 -9 3710 -5 0 -57 -51 -117 -112z"/>
</g>
</svg>
