<?xml version="1.0" standalone="no"?>
<!DOCTYPE svg PUBLIC "-//W3C//DTD SVG 20010904//EN"
 "http://www.w3.org/TR/2001/REC-SVG-20010904/DTD/svg10.dtd">
<svg version="1.0" xmlns="http://www.w3.org/2000/svg"
 width="1024.000000pt" height="1024.000000pt" viewBox="0 0 1024.000000 1024.000000"
 preserveAspectRatio="xMidYMid meet">
<metadata>
Created by potrace 1.11, written by Peter Selinger 2001-2013
</metadata>
<g transform="translate(0.000000,1024.000000) scale(0.100000,-0.100000)"
fill="#000000" stroke="none">
<path d="M4810 9374 c-588 -52 -1096 -192 -1585 -436 -428 -214 -759 -450
-1099 -786 -688 -679 -1110 -1534 -1237 -2506 -17 -129 -23 -239 -28 -556 -7
-445 0 -711 24 -904 102 -830 429 -1586 965 -2231 100 -121 331 -356 460 -469
481 -419 1027 -717 1640 -894 607 -176 1288 -209 1930 -96 591 105 1186 353
1683 702 367 257 706 585 973 942 514 685 811 1522 842 2366 4 104 4 367 1
584 -7 423 -20 571 -74 846 -145 733 -473 1407 -958 1969 -112 130 -335 353
-462 461 -555 472 -1227 796 -1949 939 -266 52 -427 67 -766 70 -173 1 -335 1
-360 -1z m2845 -3363 l79 -81 -1728 -1722 c-951 -948 -1735 -1723 -1742 -1723
-7 0 -453 439 -992 977 l-979 976 266 264 c146 144 350 346 454 448 l187 185
533 -533 532 -532 1279 1279 1280 1280 375 -369 c207 -203 412 -405 456 -449z"/>
</g>
</svg>
